<mxfile host="app.diagrams.net" modified="2024-01-04T14:50:21.867Z" agent="Mozilla/5.0 (Windows NT 10.0; Win64; x64; rv:121.0) Gecko/20100101 Firefox/121.0" etag="JdKzSGHlzFOCdPhf_Cwh" version="22.1.16" type="device">
  <diagram id="kbR7QFBh4Juw0m6U138V" name="Page-1">
    <mxGraphModel dx="1498" dy="894" grid="1" gridSize="10" guides="1" tooltips="1" connect="1" arrows="1" fold="1" page="1" pageScale="1" pageWidth="827" pageHeight="1169" math="0" shadow="0">
      <root>
        <mxCell id="0" />
        <mxCell id="1" parent="0" />
        <mxCell id="jWKj23kP3KuPFPuK_N8y-5" style="edgeStyle=none;rounded=0;orthogonalLoop=1;jettySize=auto;html=1;exitX=1;exitY=0.5;exitDx=0;exitDy=0;entryX=0;entryY=0.5;entryDx=0;entryDy=0;endArrow=none;endFill=0;" parent="1" source="jWKj23kP3KuPFPuK_N8y-1" target="jWKj23kP3KuPFPuK_N8y-4" edge="1">
          <mxGeometry relative="1" as="geometry" />
        </mxCell>
        <mxCell id="jWKj23kP3KuPFPuK_N8y-43" style="edgeStyle=none;rounded=0;orthogonalLoop=1;jettySize=auto;html=1;exitX=0.5;exitY=1;exitDx=0;exitDy=0;entryX=0.5;entryY=0;entryDx=0;entryDy=0;endArrow=none;endFill=0;" parent="1" source="jWKj23kP3KuPFPuK_N8y-1" target="jWKj23kP3KuPFPuK_N8y-40" edge="1">
          <mxGeometry relative="1" as="geometry" />
        </mxCell>
        <mxCell id="jWKj23kP3KuPFPuK_N8y-1" value="&lt;div&gt;Canzone&lt;/div&gt;" style="whiteSpace=wrap;html=1;align=center;" parent="1" vertex="1">
          <mxGeometry x="160" y="40" width="100" height="40" as="geometry" />
        </mxCell>
        <mxCell id="jWKj23kP3KuPFPuK_N8y-51" style="edgeStyle=none;rounded=0;orthogonalLoop=1;jettySize=auto;html=1;exitX=1;exitY=0.5;exitDx=0;exitDy=0;entryX=0.5;entryY=1;entryDx=0;entryDy=0;endArrow=none;endFill=0;" parent="1" source="jWKj23kP3KuPFPuK_N8y-2" target="jWKj23kP3KuPFPuK_N8y-50" edge="1">
          <mxGeometry relative="1" as="geometry" />
        </mxCell>
        <mxCell id="jWKj23kP3KuPFPuK_N8y-2" value="Playlist" style="whiteSpace=wrap;html=1;align=center;" parent="1" vertex="1">
          <mxGeometry x="350" y="240" width="100" height="40" as="geometry" />
        </mxCell>
        <mxCell id="jWKj23kP3KuPFPuK_N8y-52" style="edgeStyle=none;rounded=0;orthogonalLoop=1;jettySize=auto;html=1;exitX=0.5;exitY=1;exitDx=0;exitDy=0;entryX=0.5;entryY=0;entryDx=0;entryDy=0;endArrow=none;endFill=0;" parent="1" source="jWKj23kP3KuPFPuK_N8y-3" target="jWKj23kP3KuPFPuK_N8y-50" edge="1">
          <mxGeometry relative="1" as="geometry" />
        </mxCell>
        <mxCell id="jWKj23kP3KuPFPuK_N8y-3" value="&lt;div&gt;Persona&lt;/div&gt;" style="whiteSpace=wrap;html=1;align=center;" parent="1" vertex="1">
          <mxGeometry x="560" y="40" width="100" height="40" as="geometry" />
        </mxCell>
        <mxCell id="jWKj23kP3KuPFPuK_N8y-6" style="edgeStyle=none;rounded=0;orthogonalLoop=1;jettySize=auto;html=1;exitX=1;exitY=0.5;exitDx=0;exitDy=0;entryX=0;entryY=0.5;entryDx=0;entryDy=0;endArrow=none;endFill=0;" parent="1" source="jWKj23kP3KuPFPuK_N8y-4" target="jWKj23kP3KuPFPuK_N8y-3" edge="1">
          <mxGeometry relative="1" as="geometry" />
        </mxCell>
        <mxCell id="jWKj23kP3KuPFPuK_N8y-4" value="&lt;div&gt;Prova emozione&lt;/div&gt;&lt;div&gt;per&lt;/div&gt;" style="shape=rhombus;perimeter=rhombusPerimeter;whiteSpace=wrap;html=1;align=center;" parent="1" vertex="1">
          <mxGeometry x="340" y="30" width="120" height="60" as="geometry" />
        </mxCell>
        <mxCell id="jWKj23kP3KuPFPuK_N8y-18" style="edgeStyle=none;rounded=0;orthogonalLoop=1;jettySize=auto;html=1;entryX=0;entryY=0.5;entryDx=0;entryDy=0;endArrow=none;endFill=0;startArrow=oval;startFill=1;" parent="1" source="jWKj23kP3KuPFPuK_N8y-10" target="jWKj23kP3KuPFPuK_N8y-1" edge="1">
          <mxGeometry relative="1" as="geometry" />
        </mxCell>
        <mxCell id="jWKj23kP3KuPFPuK_N8y-10" value="&lt;u&gt;idCanzone&lt;/u&gt;" style="text;html=1;align=center;verticalAlign=middle;resizable=0;points=[];autosize=1;strokeColor=none;fillColor=none;" parent="1" vertex="1">
          <mxGeometry x="10" width="80" height="30" as="geometry" />
        </mxCell>
        <mxCell id="jWKj23kP3KuPFPuK_N8y-19" style="edgeStyle=none;rounded=0;orthogonalLoop=1;jettySize=auto;html=1;endArrow=none;endFill=0;startArrow=oval;startFill=0;entryX=0;entryY=0.5;entryDx=0;entryDy=0;" parent="1" source="jWKj23kP3KuPFPuK_N8y-11" target="jWKj23kP3KuPFPuK_N8y-1" edge="1">
          <mxGeometry relative="1" as="geometry">
            <mxPoint x="200" y="60" as="targetPoint" />
          </mxGeometry>
        </mxCell>
        <mxCell id="jWKj23kP3KuPFPuK_N8y-11" value="&lt;div&gt;titolo&lt;/div&gt;" style="text;html=1;align=center;verticalAlign=middle;resizable=0;points=[];autosize=1;strokeColor=none;fillColor=none;" parent="1" vertex="1">
          <mxGeometry x="20" y="30" width="50" height="30" as="geometry" />
        </mxCell>
        <mxCell id="jWKj23kP3KuPFPuK_N8y-20" style="edgeStyle=none;rounded=0;orthogonalLoop=1;jettySize=auto;html=1;entryX=0;entryY=0.5;entryDx=0;entryDy=0;endArrow=none;endFill=0;startArrow=oval;startFill=0;" parent="1" source="jWKj23kP3KuPFPuK_N8y-14" target="jWKj23kP3KuPFPuK_N8y-1" edge="1">
          <mxGeometry relative="1" as="geometry" />
        </mxCell>
        <mxCell id="jWKj23kP3KuPFPuK_N8y-14" value="&lt;div&gt;produttore&lt;/div&gt;" style="text;html=1;align=center;verticalAlign=middle;resizable=0;points=[];autosize=1;strokeColor=none;fillColor=none;" parent="1" vertex="1">
          <mxGeometry x="10" y="60" width="80" height="30" as="geometry" />
        </mxCell>
        <mxCell id="jWKj23kP3KuPFPuK_N8y-21" style="edgeStyle=none;rounded=0;orthogonalLoop=1;jettySize=auto;html=1;entryX=0;entryY=0.5;entryDx=0;entryDy=0;endArrow=none;endFill=0;startArrow=oval;startFill=0;" parent="1" source="jWKj23kP3KuPFPuK_N8y-15" target="jWKj23kP3KuPFPuK_N8y-1" edge="1">
          <mxGeometry relative="1" as="geometry" />
        </mxCell>
        <mxCell id="jWKj23kP3KuPFPuK_N8y-15" value="anno" style="text;html=1;align=center;verticalAlign=middle;resizable=0;points=[];autosize=1;strokeColor=none;fillColor=none;" parent="1" vertex="1">
          <mxGeometry x="20" y="90" width="50" height="30" as="geometry" />
        </mxCell>
        <mxCell id="jWKj23kP3KuPFPuK_N8y-22" style="edgeStyle=none;rounded=0;orthogonalLoop=1;jettySize=auto;html=1;endArrow=none;endFill=0;startArrow=oval;startFill=0;entryX=0;entryY=0.5;entryDx=0;entryDy=0;" parent="1" source="jWKj23kP3KuPFPuK_N8y-16" target="jWKj23kP3KuPFPuK_N8y-1" edge="1">
          <mxGeometry relative="1" as="geometry">
            <mxPoint x="200" y="60" as="targetPoint" />
          </mxGeometry>
        </mxCell>
        <mxCell id="jWKj23kP3KuPFPuK_N8y-16" value="album" style="text;html=1;align=center;verticalAlign=middle;resizable=0;points=[];autosize=1;strokeColor=none;fillColor=none;" parent="1" vertex="1">
          <mxGeometry x="15" y="120" width="60" height="30" as="geometry" />
        </mxCell>
        <mxCell id="jWKj23kP3KuPFPuK_N8y-23" style="edgeStyle=none;rounded=0;orthogonalLoop=1;jettySize=auto;html=1;endArrow=none;endFill=0;startArrow=oval;startFill=0;entryX=0;entryY=0.5;entryDx=0;entryDy=0;" parent="1" source="jWKj23kP3KuPFPuK_N8y-17" target="jWKj23kP3KuPFPuK_N8y-1" edge="1">
          <mxGeometry relative="1" as="geometry">
            <mxPoint x="200" y="60" as="targetPoint" />
          </mxGeometry>
        </mxCell>
        <mxCell id="jWKj23kP3KuPFPuK_N8y-17" value="durata" style="text;html=1;align=center;verticalAlign=middle;resizable=0;points=[];autosize=1;strokeColor=none;fillColor=none;" parent="1" vertex="1">
          <mxGeometry x="15" y="150" width="60" height="30" as="geometry" />
        </mxCell>
        <mxCell id="jWKj23kP3KuPFPuK_N8y-33" style="edgeStyle=none;rounded=0;orthogonalLoop=1;jettySize=auto;html=1;entryX=1;entryY=0.5;entryDx=0;entryDy=0;endArrow=none;endFill=0;startArrow=oval;startFill=1;" parent="1" source="jWKj23kP3KuPFPuK_N8y-24" target="jWKj23kP3KuPFPuK_N8y-3" edge="1">
          <mxGeometry relative="1" as="geometry" />
        </mxCell>
        <mxCell id="jWKj23kP3KuPFPuK_N8y-24" value="&lt;u&gt;userid&lt;/u&gt;" style="text;html=1;align=center;verticalAlign=middle;resizable=0;points=[];autosize=1;strokeColor=none;fillColor=none;" parent="1" vertex="1">
          <mxGeometry x="767" width="60" height="30" as="geometry" />
        </mxCell>
        <mxCell id="jWKj23kP3KuPFPuK_N8y-34" style="edgeStyle=none;rounded=0;orthogonalLoop=1;jettySize=auto;html=1;endArrow=none;endFill=0;startArrow=oval;startFill=0;entryX=1;entryY=0.5;entryDx=0;entryDy=0;" parent="1" source="jWKj23kP3KuPFPuK_N8y-25" target="jWKj23kP3KuPFPuK_N8y-3" edge="1">
          <mxGeometry relative="1" as="geometry">
            <mxPoint x="620" y="60" as="targetPoint" />
          </mxGeometry>
        </mxCell>
        <mxCell id="jWKj23kP3KuPFPuK_N8y-25" value="password" style="text;html=1;align=center;verticalAlign=middle;resizable=0;points=[];autosize=1;strokeColor=none;fillColor=none;" parent="1" vertex="1">
          <mxGeometry x="757" y="20" width="70" height="30" as="geometry" />
        </mxCell>
        <mxCell id="jWKj23kP3KuPFPuK_N8y-35" style="edgeStyle=none;rounded=0;orthogonalLoop=1;jettySize=auto;html=1;entryX=1;entryY=0.5;entryDx=0;entryDy=0;endArrow=none;endFill=0;startArrow=oval;startFill=0;" parent="1" source="jWKj23kP3KuPFPuK_N8y-27" target="jWKj23kP3KuPFPuK_N8y-3" edge="1">
          <mxGeometry relative="1" as="geometry" />
        </mxCell>
        <mxCell id="jWKj23kP3KuPFPuK_N8y-27" value="e-mail" style="text;html=1;align=center;verticalAlign=middle;resizable=0;points=[];autosize=1;strokeColor=none;fillColor=none;" parent="1" vertex="1">
          <mxGeometry x="767" y="40" width="60" height="30" as="geometry" />
        </mxCell>
        <mxCell id="jWKj23kP3KuPFPuK_N8y-36" style="edgeStyle=none;rounded=0;orthogonalLoop=1;jettySize=auto;html=1;entryX=1;entryY=0.5;entryDx=0;entryDy=0;endArrow=none;endFill=0;startArrow=oval;startFill=0;" parent="1" source="jWKj23kP3KuPFPuK_N8y-28" target="jWKj23kP3KuPFPuK_N8y-3" edge="1">
          <mxGeometry relative="1" as="geometry" />
        </mxCell>
        <mxCell id="jWKj23kP3KuPFPuK_N8y-28" value="codicefiscale" style="text;html=1;align=center;verticalAlign=middle;resizable=0;points=[];autosize=1;strokeColor=none;fillColor=none;" parent="1" vertex="1">
          <mxGeometry x="737" y="60" width="90" height="30" as="geometry" />
        </mxCell>
        <mxCell id="jWKj23kP3KuPFPuK_N8y-37" style="edgeStyle=none;rounded=0;orthogonalLoop=1;jettySize=auto;html=1;entryX=1;entryY=0.5;entryDx=0;entryDy=0;endArrow=none;endFill=0;startArrow=oval;startFill=0;" parent="1" source="jWKj23kP3KuPFPuK_N8y-29" target="jWKj23kP3KuPFPuK_N8y-3" edge="1">
          <mxGeometry relative="1" as="geometry" />
        </mxCell>
        <mxCell id="jWKj23kP3KuPFPuK_N8y-29" value="nome" style="text;html=1;align=center;verticalAlign=middle;resizable=0;points=[];autosize=1;strokeColor=none;fillColor=none;" parent="1" vertex="1">
          <mxGeometry x="772" y="80" width="50" height="30" as="geometry" />
        </mxCell>
        <mxCell id="jWKj23kP3KuPFPuK_N8y-38" style="edgeStyle=none;rounded=0;orthogonalLoop=1;jettySize=auto;html=1;entryX=1;entryY=0.5;entryDx=0;entryDy=0;endArrow=none;endFill=0;startArrow=oval;startFill=0;" parent="1" source="jWKj23kP3KuPFPuK_N8y-30" target="jWKj23kP3KuPFPuK_N8y-3" edge="1">
          <mxGeometry relative="1" as="geometry" />
        </mxCell>
        <mxCell id="jWKj23kP3KuPFPuK_N8y-30" value="cognome" style="text;html=1;align=center;verticalAlign=middle;resizable=0;points=[];autosize=1;strokeColor=none;fillColor=none;" parent="1" vertex="1">
          <mxGeometry x="757" y="100" width="70" height="30" as="geometry" />
        </mxCell>
        <mxCell id="jWKj23kP3KuPFPuK_N8y-39" style="edgeStyle=none;rounded=0;orthogonalLoop=1;jettySize=auto;html=1;entryX=1;entryY=0.5;entryDx=0;entryDy=0;endArrow=none;endFill=0;startArrow=oval;startFill=0;" parent="1" source="jWKj23kP3KuPFPuK_N8y-31" target="jWKj23kP3KuPFPuK_N8y-3" edge="1">
          <mxGeometry relative="1" as="geometry" />
        </mxCell>
        <mxCell id="jWKj23kP3KuPFPuK_N8y-31" value="indirizzo" style="text;html=1;align=center;verticalAlign=middle;resizable=0;points=[];autosize=1;strokeColor=none;fillColor=none;" parent="1" vertex="1">
          <mxGeometry x="757" y="120" width="70" height="30" as="geometry" />
        </mxCell>
        <mxCell id="jWKj23kP3KuPFPuK_N8y-44" style="edgeStyle=none;rounded=0;orthogonalLoop=1;jettySize=auto;html=1;exitX=0.5;exitY=1;exitDx=0;exitDy=0;entryX=0;entryY=0.5;entryDx=0;entryDy=0;endArrow=none;endFill=0;" parent="1" source="jWKj23kP3KuPFPuK_N8y-40" target="jWKj23kP3KuPFPuK_N8y-2" edge="1">
          <mxGeometry relative="1" as="geometry" />
        </mxCell>
        <mxCell id="jWKj23kP3KuPFPuK_N8y-40" value="&lt;div&gt;inserita in&lt;/div&gt;&lt;div&gt;&lt;br&gt;&lt;/div&gt;" style="shape=rhombus;perimeter=rhombusPerimeter;whiteSpace=wrap;html=1;align=center;rotation=0;direction=east;" parent="1" vertex="1">
          <mxGeometry x="150" y="160" width="120" height="60" as="geometry" />
        </mxCell>
        <mxCell id="jWKj23kP3KuPFPuK_N8y-45" value="(0,N)" style="text;html=1;align=center;verticalAlign=middle;resizable=0;points=[];autosize=1;strokeColor=none;fillColor=none;" parent="1" vertex="1">
          <mxGeometry x="270" y="30" width="50" height="30" as="geometry" />
        </mxCell>
        <mxCell id="jWKj23kP3KuPFPuK_N8y-46" value="(0,N)" style="text;html=1;align=center;verticalAlign=middle;resizable=0;points=[];autosize=1;strokeColor=none;fillColor=none;" parent="1" vertex="1">
          <mxGeometry x="485" y="30" width="50" height="30" as="geometry" />
        </mxCell>
        <mxCell id="jWKj23kP3KuPFPuK_N8y-47" value="(0,N)" style="text;html=1;align=center;verticalAlign=middle;resizable=0;points=[];autosize=1;strokeColor=none;fillColor=none;" parent="1" vertex="1">
          <mxGeometry x="205" y="108" width="50" height="30" as="geometry" />
        </mxCell>
        <mxCell id="jWKj23kP3KuPFPuK_N8y-49" value="(0,N)" style="text;html=1;align=center;verticalAlign=middle;resizable=0;points=[];autosize=1;strokeColor=none;fillColor=none;" parent="1" vertex="1">
          <mxGeometry x="260" y="210" width="50" height="30" as="geometry" />
        </mxCell>
        <mxCell id="jWKj23kP3KuPFPuK_N8y-50" value="crea" style="shape=rhombus;perimeter=rhombusPerimeter;whiteSpace=wrap;html=1;align=center;" parent="1" vertex="1">
          <mxGeometry x="550" y="160" width="120" height="60" as="geometry" />
        </mxCell>
        <mxCell id="jWKj23kP3KuPFPuK_N8y-54" style="edgeStyle=none;rounded=0;orthogonalLoop=1;jettySize=auto;html=1;entryX=0.5;entryY=1;entryDx=0;entryDy=0;endArrow=none;endFill=0;startArrow=oval;startFill=1;" parent="1" source="jWKj23kP3KuPFPuK_N8y-53" target="jWKj23kP3KuPFPuK_N8y-2" edge="1">
          <mxGeometry relative="1" as="geometry" />
        </mxCell>
        <mxCell id="jWKj23kP3KuPFPuK_N8y-53" value="&lt;u&gt;titolo&lt;/u&gt;" style="text;html=1;align=center;verticalAlign=middle;resizable=0;points=[];autosize=1;strokeColor=none;fillColor=none;" parent="1" vertex="1">
          <mxGeometry x="350" y="320" width="50" height="30" as="geometry" />
        </mxCell>
        <mxCell id="jWKj23kP3KuPFPuK_N8y-55" value="(0,N)" style="text;html=1;align=center;verticalAlign=middle;resizable=0;points=[];autosize=1;strokeColor=none;fillColor=none;" parent="1" vertex="1">
          <mxGeometry x="570" y="80" width="50" height="30" as="geometry" />
        </mxCell>
        <mxCell id="jWKj23kP3KuPFPuK_N8y-56" value="(1,1)" style="text;html=1;align=center;verticalAlign=middle;resizable=0;points=[];autosize=1;strokeColor=none;fillColor=none;" parent="1" vertex="1">
          <mxGeometry x="480" y="210" width="50" height="30" as="geometry" />
        </mxCell>
        <mxCell id="jWKj23kP3KuPFPuK_N8y-59" style="edgeStyle=none;rounded=0;orthogonalLoop=1;jettySize=auto;html=1;entryX=0.5;entryY=1;entryDx=0;entryDy=0;endArrow=none;endFill=0;startArrow=oval;startFill=0;" parent="1" source="jWKj23kP3KuPFPuK_N8y-57" target="jWKj23kP3KuPFPuK_N8y-2" edge="1">
          <mxGeometry relative="1" as="geometry" />
        </mxCell>
        <mxCell id="jWKj23kP3KuPFPuK_N8y-57" value="&lt;u&gt;userid&lt;/u&gt;" style="text;html=1;align=center;verticalAlign=middle;resizable=0;points=[];autosize=1;strokeColor=none;fillColor=none;" parent="1" vertex="1">
          <mxGeometry x="400" y="320" width="60" height="30" as="geometry" />
        </mxCell>
        <mxCell id="ecdNz4Ku9t3Qj6MTJcpb-4" style="edgeStyle=orthogonalEdgeStyle;rounded=0;orthogonalLoop=1;jettySize=auto;html=1;entryX=0.5;entryY=1;entryDx=0;entryDy=0;endArrow=none;endFill=0;startArrow=oval;startFill=0;" parent="1" source="ecdNz4Ku9t3Qj6MTJcpb-2" target="jWKj23kP3KuPFPuK_N8y-4" edge="1">
          <mxGeometry relative="1" as="geometry" />
        </mxCell>
        <mxCell id="ecdNz4Ku9t3Qj6MTJcpb-2" value="notes" style="ellipse;whiteSpace=wrap;html=1;align=center;" parent="1" vertex="1">
          <mxGeometry x="300" y="120" width="100" height="40" as="geometry" />
        </mxCell>
        <mxCell id="ecdNz4Ku9t3Qj6MTJcpb-5" style="edgeStyle=orthogonalEdgeStyle;rounded=0;orthogonalLoop=1;jettySize=auto;html=1;entryX=0.5;entryY=1;entryDx=0;entryDy=0;endArrow=none;endFill=0;startArrow=oval;startFill=0;" parent="1" source="ecdNz4Ku9t3Qj6MTJcpb-3" target="jWKj23kP3KuPFPuK_N8y-4" edge="1">
          <mxGeometry relative="1" as="geometry" />
        </mxCell>
        <mxCell id="ecdNz4Ku9t3Qj6MTJcpb-3" value="scores" style="ellipse;whiteSpace=wrap;html=1;align=center;" parent="1" vertex="1">
          <mxGeometry x="400" y="120" width="100" height="40" as="geometry" />
        </mxCell>
      </root>
    </mxGraphModel>
  </diagram>
</mxfile>
